<svg xmlns="http://www.w3.org/2000/svg" xmlns:xlink="http://www.w3.org/1999/xlink" width="375" viewBox="0 0 375 375" height="375" version="1.0"><defs><g id="a"><path d="M 1.054688 0 L 2.878906 0 L 2.878906 -4.671875 C 2.878906 -5.933594 3.792969 -6.832031 4.976562 -6.832031 C 6.175781 -6.832031 6.910156 -5.917969 6.910156 -4.605469 L 6.910156 0 L 8.734375 0 L 8.734375 -4.910156 C 8.734375 -6.925781 7.519531 -8.382812 5.664062 -8.382812 C 4.480469 -8.382812 3.582031 -7.789062 2.992188 -6.75 L 2.878906 -6.75 L 2.878906 -11.804688 L 1.054688 -11.804688 Z M 1.054688 0"/></g><g id="b"><path d="M 5.054688 0.257812 C 7.007812 0.257812 8.703125 -0.800781 9.152344 -2.367188 L 7.550781 -2.625 C 7.214844 -1.710938 6.238281 -1.054688 5.136719 -1.054688 C 3.632812 -1.054688 2.558594 -2.0625 2.429688 -3.566406 L 9.40625 -3.566406 L 9.421875 -4.0625 C 9.421875 -6.640625 7.664062 -8.382812 5.070312 -8.382812 C 2.429688 -8.382812 0.574219 -6.65625 0.574219 -4.078125 C 0.574219 -1.488281 2.414062 0.257812 5.054688 0.257812 Z M 2.414062 -4.625 C 2.558594 -6.078125 3.582031 -7.085938 5.039062 -7.085938 C 6.445312 -7.085938 7.488281 -6.03125 7.582031 -4.625 Z M 2.414062 -4.625"/></g><g id="c"><path d="M 1.039062 0 L 2.863281 0 L 2.863281 -11.804688 L 1.039062 -11.804688 Z M 1.039062 0"/></g><g id="d"><path d="M 1.054688 3.679688 L 2.863281 3.679688 L 2.863281 -1.488281 L 3.007812 -1.488281 C 3.566406 -0.398438 4.589844 0.257812 5.96875 0.257812 C 8.238281 0.257812 9.839844 -1.488281 9.839844 -4.0625 C 9.839844 -6.65625 8.253906 -8.382812 5.96875 -8.382812 C 4.574219 -8.382812 3.566406 -7.726562 3.007812 -6.640625 L 2.863281 -6.640625 L 2.863281 -8.125 L 1.054688 -8.125 Z M 5.40625 -1.296875 C 3.902344 -1.296875 2.800781 -2.464844 2.800781 -4.0625 C 2.800781 -5.664062 3.902344 -6.832031 5.40625 -6.832031 C 6.925781 -6.832031 8.015625 -5.664062 8.015625 -4.0625 C 8.015625 -2.464844 6.925781 -1.296875 5.40625 -1.296875 Z M 5.40625 -1.296875"/></g><g id="e"><path d="M 2.015625 -9.4375 C 2.671875 -9.4375 3.152344 -9.886719 3.152344 -10.527344 C 3.152344 -11.167969 2.671875 -11.613281 2.015625 -11.613281 C 1.375 -11.613281 0.894531 -11.167969 0.894531 -10.527344 C 0.894531 -9.886719 1.375 -9.4375 2.015625 -9.4375 Z M 1.105469 0 L 2.925781 0 L 2.925781 -8.125 L 1.105469 -8.125 Z M 1.105469 0"/></g><g id="f"><path d="M 1.054688 0 L 2.863281 0 L 2.863281 -4.671875 C 2.863281 -5.933594 3.792969 -6.832031 4.976562 -6.832031 C 6.175781 -6.832031 6.910156 -5.902344 6.910156 -4.589844 L 6.910156 0 L 8.734375 0 L 8.734375 -4.910156 C 8.734375 -6.910156 7.503906 -8.382812 5.648438 -8.382812 C 4.480469 -8.382812 3.566406 -7.789062 2.992188 -6.734375 L 2.863281 -6.734375 L 2.863281 -8.125 L 1.054688 -8.125 Z M 1.054688 0"/></g><g id="g"><path d="M 5.070312 3.933594 C 7.628906 3.933594 9.34375 2.382812 9.34375 -0.015625 L 9.34375 -8.125 L 7.597656 -8.125 L 7.597656 -6.640625 L 7.472656 -6.640625 C 6.863281 -7.726562 5.824219 -8.382812 4.429688 -8.382812 C 2.160156 -8.382812 0.574219 -6.703125 0.574219 -4.0625 C 0.574219 -1.519531 2.160156 0.191406 4.449219 0.191406 C 5.773438 0.191406 6.78125 -0.449219 7.40625 -1.472656 L 7.535156 -1.472656 L 7.535156 -0.078125 C 7.535156 1.441406 6.496094 2.511719 4.992188 2.511719 C 3.648438 2.511719 2.589844 1.726562 2.414062 0.625 L 0.65625 0.832031 C 0.910156 2.734375 2.671875 3.933594 5.070312 3.933594 Z M 4.992188 -1.3125 C 3.488281 -1.3125 2.382812 -2.464844 2.382812 -4.0625 C 2.382812 -5.679688 3.457031 -6.832031 4.992188 -6.832031 C 6.496094 -6.832031 7.597656 -5.679688 7.597656 -4.0625 C 7.597656 -2.464844 6.511719 -1.3125 4.992188 -1.3125 Z M 4.992188 -1.3125"/></g><g id="j"><path d="M 4.976562 0.257812 C 7.613281 0.257812 9.40625 -1.457031 9.40625 -4.0625 C 9.40625 -6.671875 7.613281 -8.382812 4.976562 -8.382812 C 2.335938 -8.382812 0.558594 -6.6875 0.558594 -4.0625 C 0.558594 -1.457031 2.351562 0.257812 4.976562 0.257812 Z M 4.976562 -1.296875 C 3.457031 -1.296875 2.367188 -2.449219 2.367188 -4.0625 C 2.367188 -5.679688 3.457031 -6.832031 4.976562 -6.832031 C 6.511719 -6.832031 7.597656 -5.679688 7.597656 -4.0625 C 7.597656 -2.449219 6.511719 -1.296875 4.976562 -1.296875 Z M 4.976562 -1.296875"/></g><g id="m"><path d="M 1.054688 0 L 2.863281 0 L 2.863281 -4.269531 C 2.863281 -5.742188 3.617188 -6.71875 4.765625 -6.71875 C 5.167969 -6.71875 5.664062 -6.605469 6.109375 -6.382812 L 6.109375 -8.0625 C 5.792969 -8.207031 5.40625 -8.285156 5.039062 -8.285156 C 4.0625 -8.285156 3.375 -7.726562 2.992188 -6.800781 L 2.863281 -6.800781 L 2.863281 -8.125 L 1.054688 -8.125 Z M 1.054688 0"/></g><g id="n"><path d="M 3.199219 0.257812 C 4.464844 0.257812 5.597656 -0.257812 6.128906 -1.265625 L 6.238281 -1.265625 L 6.238281 0 L 8.0625 0 L 8.0625 -5.3125 C 8.0625 -7.101562 6.605469 -8.320312 4.511719 -8.320312 C 2.367188 -8.320312 0.910156 -7.136719 0.910156 -5.421875 L 2.671875 -5.421875 C 2.671875 -6.414062 3.421875 -7.101562 4.496094 -7.101562 C 5.535156 -7.101562 6.238281 -6.382812 6.238281 -5.375 L 6.238281 -4.941406 L 4.222656 -4.625 C 1.664062 -4.222656 0.527344 -3.375 0.527344 -1.917969 C 0.527344 -0.542969 1.601562 0.257812 3.199219 0.257812 Z M 3.839844 -0.929688 C 2.863281 -0.929688 2.289062 -1.359375 2.289062 -2.0625 C 2.289062 -2.816406 2.863281 -3.3125 4.335938 -3.566406 L 6.238281 -3.886719 L 6.238281 -3.183594 C 6.238281 -1.886719 5.277344 -0.929688 3.839844 -0.929688 Z M 3.839844 -0.929688"/></g><g id="o"><path d="M 4.960938 0.257812 C 7.054688 0.257812 8.6875 -0.910156 9.007812 -2.71875 L 7.328125 -2.945312 C 7.070312 -1.953125 6.09375 -1.230469 4.976562 -1.230469 C 3.472656 -1.230469 2.382812 -2.414062 2.382812 -4.0625 C 2.382812 -5.710938 3.472656 -6.894531 4.976562 -6.894531 C 6.078125 -6.894531 7.070312 -6.160156 7.328125 -5.121094 L 9.007812 -5.34375 C 8.703125 -7.199219 7.054688 -8.382812 4.960938 -8.382812 C 2.367188 -8.382812 0.574219 -6.65625 0.574219 -4.0625 C 0.558594 -1.503906 2.398438 0.257812 4.960938 0.257812 Z M 4.960938 0.257812"/></g><g id="p"><path d="M 1.039062 0 L 2.863281 0 L 2.863281 -3.582031 L 2.992188 -3.582031 L 6.175781 0 L 8.398438 0 L 4.558594 -4.222656 L 8.300781 -8.125 L 6.078125 -8.125 L 2.992188 -4.847656 L 2.863281 -4.847656 L 2.863281 -11.804688 L 1.039062 -11.804688 Z M 1.039062 0"/></g><g id="q"><path d="M 1.054688 0 L 2.863281 0 L 2.863281 -4.75 C 2.863281 -6.015625 3.617188 -6.832031 4.75 -6.832031 C 5.824219 -6.832031 6.542969 -6.015625 6.542969 -4.75 L 6.542969 0 L 8.367188 0 L 8.367188 -4.75 C 8.367188 -6 9.117188 -6.832031 10.269531 -6.832031 C 11.390625 -6.816406 12.09375 -5.96875 12.09375 -4.75 L 12.09375 0 L 13.917969 0 L 13.917969 -5.121094 C 13.917969 -7.070312 12.703125 -8.382812 10.925781 -8.382812 C 9.566406 -8.382812 8.621094 -7.679688 8.238281 -6.558594 L 8.125 -6.558594 C 7.773438 -7.664062 6.765625 -8.382812 5.503906 -8.382812 C 4.351562 -8.382812 3.441406 -7.757812 2.992188 -6.800781 L 2.863281 -6.800781 L 2.863281 -8.125 L 1.054688 -8.125 Z M 1.054688 0"/></g><g id="s"><path d="M 4.304688 0.289062 C 6.496094 0.289062 7.984375 -0.71875 7.984375 -2.351562 C 7.984375 -4.289062 6.191406 -4.574219 4.671875 -4.785156 C 3.472656 -4.941406 2.367188 -5.054688 2.367188 -6.078125 C 2.367188 -6.765625 3.085938 -7.246094 4.113281 -7.246094 C 5.277344 -7.246094 6.0625 -6.640625 6.0625 -5.710938 L 7.695312 -5.710938 C 7.695312 -7.359375 6.207031 -8.414062 4.113281 -8.414062 C 2.0625 -8.414062 0.6875 -7.421875 0.6875 -5.902344 C 0.6875 -3.871094 2.542969 -3.664062 4 -3.488281 C 5.136719 -3.34375 6.175781 -3.246094 6.175781 -2.144531 C 6.175781 -1.375 5.390625 -0.878906 4.320312 -0.878906 C 3.023438 -0.878906 2.144531 -1.582031 2.128906 -2.589844 L 0.558594 -2.589844 C 0.558594 -0.863281 2.046875 0.289062 4.304688 0.289062 Z M 4.304688 0.289062"/></g><g id="i"><path d="M 2.480469 3.648438 C 4.046875 3.648438 4.941406 2.449219 5.808594 0.207031 L 9.054688 -8.125 L 7.183594 -8.125 L 5.007812 -2.320312 L 4.863281 -2.320312 L 2.238281 -8.125 L 0.273438 -8.125 L 4.222656 0.03125 C 3.710938 1.265625 3.167969 2.160156 2.160156 2.160156 C 1.808594 2.160156 1.34375 2.078125 1.007812 1.96875 L 1.007812 3.421875 C 1.375 3.550781 2 3.648438 2.480469 3.648438 Z M 2.480469 3.648438"/></g><g id="k"><path d="M 4 0.257812 C 5.167969 0.257812 6.078125 -0.335938 6.65625 -1.390625 L 6.78125 -1.390625 L 6.78125 0 L 8.605469 0 L 8.605469 -8.125 L 6.78125 -8.125 L 6.78125 -3.472656 C 6.78125 -2.207031 5.855469 -1.296875 4.6875 -1.296875 C 3.488281 -1.296875 2.734375 -2.222656 2.734375 -3.535156 L 2.734375 -8.125 L 0.910156 -8.125 L 0.910156 -3.230469 C 0.910156 -1.214844 2.144531 0.257812 4 0.257812 Z M 4 0.257812"/></g><g id="l"><path d="M 3.96875 0.175781 C 4.429688 0.175781 5.039062 0.0976562 5.457031 -0.046875 L 5.457031 -1.375 C 5.167969 -1.296875 4.785156 -1.246094 4.496094 -1.246094 C 3.824219 -1.246094 3.390625 -1.742188 3.390625 -2.480469 L 3.375 -6.78125 L 5.34375 -6.78125 L 5.34375 -8.125 L 3.375 -8.125 L 3.390625 -10.621094 L 1.917969 -10.621094 L 1.632812 -8.125 L 0.320312 -8.125 L 0.320312 -6.78125 L 1.566406 -6.78125 L 1.566406 -2.414062 C 1.566406 -0.863281 2.511719 0.175781 3.96875 0.175781 Z M 3.96875 0.175781"/></g><g id="r"><path d="M 3.3125 0 L 6 0 L 9.054688 -8.125 L 7.101562 -8.125 L 4.71875 -1.519531 L 4.589844 -1.519531 L 2.207031 -8.125 L 0.257812 -8.125 Z M 3.3125 0"/></g></defs><g fill="#737373"><use x="44.662" y="195.13" xmlns:xlink="http://www.w3.org/1999/xlink" xlink:href="#a" xlink:type="simple" xlink:actuate="onLoad" xlink:show="embed"/></g><g fill="#737373"><use x="54.324" y="195.13" xmlns:xlink="http://www.w3.org/1999/xlink" xlink:href="#b" xlink:type="simple" xlink:actuate="onLoad" xlink:show="embed"/></g><g fill="#737373"><use x="64.306" y="195.13" xmlns:xlink="http://www.w3.org/1999/xlink" xlink:href="#c" xlink:type="simple" xlink:actuate="onLoad" xlink:show="embed"/></g><g fill="#737373"><use x="68.209" y="195.13" xmlns:xlink="http://www.w3.org/1999/xlink" xlink:href="#d" xlink:type="simple" xlink:actuate="onLoad" xlink:show="embed"/></g><g fill="#737373"><use x="78.606" y="195.13" xmlns:xlink="http://www.w3.org/1999/xlink" xlink:href="#e" xlink:type="simple" xlink:actuate="onLoad" xlink:show="embed"/></g><g fill="#737373"><use x="82.637" y="195.13" xmlns:xlink="http://www.w3.org/1999/xlink" xlink:href="#f" xlink:type="simple" xlink:actuate="onLoad" xlink:show="embed"/></g><g fill="#737373"><use x="92.299" y="195.13" xmlns:xlink="http://www.w3.org/1999/xlink" xlink:href="#g" xlink:type="simple" xlink:actuate="onLoad" xlink:show="embed"/></g><g fill="#737373"><use x="102.697" y="195.13" xmlns:xlink="http://www.w3.org/1999/xlink" xlink:href="#h" xlink:type="simple" xlink:actuate="onLoad" xlink:show="embed"/></g><g fill="#737373"><use x="106.632" y="195.13" xmlns:xlink="http://www.w3.org/1999/xlink" xlink:href="#i" xlink:type="simple" xlink:actuate="onLoad" xlink:show="embed"/></g><g fill="#737373"><use x="115.973" y="195.13" xmlns:xlink="http://www.w3.org/1999/xlink" xlink:href="#j" xlink:type="simple" xlink:actuate="onLoad" xlink:show="embed"/></g><g fill="#737373"><use x="125.923" y="195.13" xmlns:xlink="http://www.w3.org/1999/xlink" xlink:href="#k" xlink:type="simple" xlink:actuate="onLoad" xlink:show="embed"/></g><g fill="#737373"><use x="135.585" y="195.13" xmlns:xlink="http://www.w3.org/1999/xlink" xlink:href="#h" xlink:type="simple" xlink:actuate="onLoad" xlink:show="embed"/></g><g fill="#737373"><use x="139.52" y="195.13" xmlns:xlink="http://www.w3.org/1999/xlink" xlink:href="#l" xlink:type="simple" xlink:actuate="onLoad" xlink:show="embed"/></g><g fill="#737373"><use x="145.406" y="195.13" xmlns:xlink="http://www.w3.org/1999/xlink" xlink:href="#m" xlink:type="simple" xlink:actuate="onLoad" xlink:show="embed"/></g><g fill="#737373"><use x="151.885" y="195.13" xmlns:xlink="http://www.w3.org/1999/xlink" xlink:href="#n" xlink:type="simple" xlink:actuate="onLoad" xlink:show="embed"/></g><g fill="#737373"><use x="160.875" y="195.13" xmlns:xlink="http://www.w3.org/1999/xlink" xlink:href="#o" xlink:type="simple" xlink:actuate="onLoad" xlink:show="embed"/></g><g fill="#737373"><use x="170.456" y="195.13" xmlns:xlink="http://www.w3.org/1999/xlink" xlink:href="#p" xlink:type="simple" xlink:actuate="onLoad" xlink:show="embed"/></g><g fill="#737373"><use x="178.95" y="195.13" xmlns:xlink="http://www.w3.org/1999/xlink" xlink:href="#h" xlink:type="simple" xlink:actuate="onLoad" xlink:show="embed"/></g><g fill="#737373"><use x="182.885" y="195.13" xmlns:xlink="http://www.w3.org/1999/xlink" xlink:href="#i" xlink:type="simple" xlink:actuate="onLoad" xlink:show="embed"/></g><g fill="#737373"><use x="192.227" y="195.13" xmlns:xlink="http://www.w3.org/1999/xlink" xlink:href="#j" xlink:type="simple" xlink:actuate="onLoad" xlink:show="embed"/></g><g fill="#737373"><use x="202.177" y="195.13" xmlns:xlink="http://www.w3.org/1999/xlink" xlink:href="#k" xlink:type="simple" xlink:actuate="onLoad" xlink:show="embed"/></g><g fill="#737373"><use x="211.838" y="195.13" xmlns:xlink="http://www.w3.org/1999/xlink" xlink:href="#m" xlink:type="simple" xlink:actuate="onLoad" xlink:show="embed"/></g><g fill="#737373"><use x="218.317" y="195.13" xmlns:xlink="http://www.w3.org/1999/xlink" xlink:href="#h" xlink:type="simple" xlink:actuate="onLoad" xlink:show="embed"/></g><g fill="#737373"><use x="222.252" y="195.13" xmlns:xlink="http://www.w3.org/1999/xlink" xlink:href="#q" xlink:type="simple" xlink:actuate="onLoad" xlink:show="embed"/></g><g fill="#737373"><use x="237.08" y="195.13" xmlns:xlink="http://www.w3.org/1999/xlink" xlink:href="#j" xlink:type="simple" xlink:actuate="onLoad" xlink:show="embed"/></g><g fill="#737373"><use x="247.03" y="195.13" xmlns:xlink="http://www.w3.org/1999/xlink" xlink:href="#f" xlink:type="simple" xlink:actuate="onLoad" xlink:show="embed"/></g><g fill="#737373"><use x="256.691" y="195.13" xmlns:xlink="http://www.w3.org/1999/xlink" xlink:href="#b" xlink:type="simple" xlink:actuate="onLoad" xlink:show="embed"/></g><g fill="#737373"><use x="266.673" y="195.13" xmlns:xlink="http://www.w3.org/1999/xlink" xlink:href="#i" xlink:type="simple" xlink:actuate="onLoad" xlink:show="embed"/></g><g fill="#737373"><use x="276.015" y="195.13" xmlns:xlink="http://www.w3.org/1999/xlink" xlink:href="#h" xlink:type="simple" xlink:actuate="onLoad" xlink:show="embed"/></g><g fill="#737373"><use x="279.95" y="195.13" xmlns:xlink="http://www.w3.org/1999/xlink" xlink:href="#q" xlink:type="simple" xlink:actuate="onLoad" xlink:show="embed"/></g><g fill="#737373"><use x="294.778" y="195.13" xmlns:xlink="http://www.w3.org/1999/xlink" xlink:href="#j" xlink:type="simple" xlink:actuate="onLoad" xlink:show="embed"/></g><g fill="#737373"><use x="304.728" y="195.13" xmlns:xlink="http://www.w3.org/1999/xlink" xlink:href="#r" xlink:type="simple" xlink:actuate="onLoad" xlink:show="embed"/></g><g fill="#737373"><use x="314.054" y="195.13" xmlns:xlink="http://www.w3.org/1999/xlink" xlink:href="#b" xlink:type="simple" xlink:actuate="onLoad" xlink:show="embed"/></g><g fill="#737373"><use x="324.035" y="195.13" xmlns:xlink="http://www.w3.org/1999/xlink" xlink:href="#s" xlink:type="simple" xlink:actuate="onLoad" xlink:show="embed"/></g></svg>