<svg xmlns="http://www.w3.org/2000/svg" xmlns:xlink="http://www.w3.org/1999/xlink" width="375" viewBox="0 0 375 375" height="375" version="1.0"><defs><g id="a"><path d="M 12.398438 0.550781 C 13.847656 0.550781 15.75 0.300781 17.046875 -0.148438 L 17.046875 -4.300781 C 16.148438 -4.050781 14.949219 -3.898438 14.046875 -3.898438 C 11.949219 -3.898438 10.597656 -5.449219 10.597656 -7.75 L 10.550781 -21.199219 L 16.699219 -21.199219 L 16.699219 -25.398438 L 10.550781 -25.398438 L 10.597656 -33.195312 L 6 -33.195312 L 5.097656 -25.398438 L 1 -25.398438 L 1 -21.199219 L 4.898438 -21.199219 L 4.898438 -7.550781 C 4.898438 -2.699219 7.847656 0.550781 12.398438 0.550781 Z M 12.398438 0.550781"/></g><g id="e"><path d="M 1.601562 0 L 24.847656 0 L 24.847656 -4.648438 L 9.898438 -4.648438 L 9.898438 -5.050781 L 24.347656 -22.398438 L 24.347656 -25.398438 L 2.101562 -25.398438 L 2.101562 -20.746094 L 16.449219 -20.746094 L 16.449219 -20.347656 L 1.601562 -3 Z M 1.601562 0"/></g><g id="b"><path d="M 3.300781 0 L 8.949219 0 L 8.949219 -13.347656 C 8.949219 -17.949219 11.300781 -20.996094 14.898438 -20.996094 C 16.148438 -20.996094 17.699219 -20.648438 19.097656 -19.949219 L 19.097656 -25.199219 C 18.097656 -25.648438 16.898438 -25.898438 15.75 -25.898438 C 12.699219 -25.898438 10.550781 -24.148438 9.347656 -21.246094 L 8.949219 -21.246094 L 8.949219 -25.398438 L 3.300781 -25.398438 Z M 3.300781 0"/></g><g id="c"><path d="M 10 0.800781 C 13.949219 0.800781 17.5 -0.800781 19.148438 -3.949219 L 19.5 -3.949219 L 19.5 0 L 25.199219 0 L 25.199219 -16.597656 C 25.199219 -22.199219 20.648438 -25.996094 14.097656 -25.996094 C 7.398438 -25.996094 2.851562 -22.296875 2.851562 -16.949219 L 8.347656 -16.949219 C 8.347656 -20.046875 10.699219 -22.199219 14.046875 -22.199219 C 17.296875 -22.199219 19.5 -19.949219 19.5 -16.796875 L 19.5 -15.449219 L 13.199219 -14.449219 C 5.199219 -13.199219 1.648438 -10.550781 1.648438 -6 C 1.648438 -1.699219 5 0.800781 10 0.800781 Z M 12 -2.898438 C 8.949219 -2.898438 7.148438 -4.25 7.148438 -6.449219 C 7.148438 -8.800781 8.949219 -10.347656 13.546875 -11.148438 L 19.5 -12.148438 L 19.5 -9.949219 C 19.5 -5.898438 16.5 -2.898438 12 -2.898438 Z M 12 -2.898438"/></g><g id="d"><path d="M 3.300781 0 L 8.949219 0 L 8.949219 -14.597656 C 8.949219 -18.546875 11.847656 -21.347656 15.546875 -21.347656 C 19.296875 -21.347656 21.597656 -18.449219 21.597656 -14.347656 L 21.597656 0 L 27.296875 0 L 27.296875 -15.347656 C 27.296875 -21.597656 23.449219 -26.199219 17.648438 -26.199219 C 14 -26.199219 11.148438 -24.347656 9.347656 -21.046875 L 8.949219 -21.046875 L 8.949219 -25.398438 L 3.300781 -25.398438 Z M 3.300781 0"/></g><g id="f"><path d="M 9.398438 0.648438 C 12.949219 0.648438 16.296875 -0.699219 17.796875 -3.398438 L 18.25 -3.398438 L 18.25 0 L 26.847656 0 L 26.847656 -16.796875 C 26.847656 -22.496094 21.898438 -26.246094 14.546875 -26.246094 C 7.097656 -26.246094 2.199219 -22.496094 2.199219 -16.847656 L 10.398438 -16.847656 C 10.398438 -19.347656 12.148438 -20.949219 14.449219 -20.949219 C 16.75 -20.949219 18.25 -19.347656 18.25 -17.148438 L 18.25 -15.847656 L 13.347656 -15.097656 C 4.949219 -13.847656 1.050781 -11.347656 1.050781 -6.449219 C 1.050781 -1.898438 4.5 0.648438 9.398438 0.648438 Z M 12.898438 -4.449219 C 10.648438 -4.449219 9.300781 -5.597656 9.300781 -7.300781 C 9.300781 -9.050781 10.597656 -10.148438 13.796875 -10.699219 L 18.25 -11.449219 L 18.25 -9.699219 C 18.25 -6.699219 16.097656 -4.449219 12.898438 -4.449219 Z M 12.898438 -4.449219"/></g><g id="g"><path d="M 2.398438 0 L 10.949219 0 L 10.949219 -10.5 L 11.398438 -10.5 L 18.898438 0 L 28.996094 0 L 18.796875 -13.347656 L 28.796875 -25.699219 L 18.75 -25.699219 L 11.398438 -16.148438 L 10.949219 -16.148438 L 10.949219 -37.195312 L 2.398438 -37.195312 Z M 2.398438 0"/></g><g id="h"><path d="M 12.847656 0.550781 C 14.449219 0.550781 16.699219 0.25 18.296875 -0.351562 L 18.296875 -6.25 C 17.5 -6.050781 16.449219 -5.949219 15.699219 -5.949219 C 13.796875 -5.949219 12.546875 -7.300781 12.546875 -9.398438 L 12.546875 -19.597656 L 18.148438 -19.597656 L 18.148438 -25.699219 L 12.546875 -25.699219 L 12.546875 -33.597656 L 5.75 -33.597656 L 4.300781 -25.699219 L 0.550781 -25.699219 L 0.550781 -19.597656 L 3.949219 -19.597656 L 3.949219 -9 C 3.949219 -3.300781 7.5 0.550781 12.847656 0.550781 Z M 12.847656 0.550781"/></g></defs><g fill="#737373"><use x="87.117" y="217.331" xmlns:xlink="http://www.w3.org/1999/xlink" xlink:href="#a" xlink:type="simple" xlink:actuate="onLoad" xlink:show="embed"/></g><g fill="#737373"><use x="105.514" y="217.331" xmlns:xlink="http://www.w3.org/1999/xlink" xlink:href="#b" xlink:type="simple" xlink:actuate="onLoad" xlink:show="embed"/></g><g fill="#737373"><use x="125.761" y="217.331" xmlns:xlink="http://www.w3.org/1999/xlink" xlink:href="#c" xlink:type="simple" xlink:actuate="onLoad" xlink:show="embed"/></g><g fill="#737373"><use x="153.857" y="217.331" xmlns:xlink="http://www.w3.org/1999/xlink" xlink:href="#d" xlink:type="simple" xlink:actuate="onLoad" xlink:show="embed"/></g><g fill="#737373"><use x="184.052" y="217.331" xmlns:xlink="http://www.w3.org/1999/xlink" xlink:href="#e" xlink:type="simple" xlink:actuate="onLoad" xlink:show="embed"/></g><g fill="#737373"><use x="210.492" y="217.331" xmlns:xlink="http://www.w3.org/1999/xlink" xlink:href="#f" xlink:type="simple" xlink:actuate="onLoad" xlink:show="embed"/></g><g fill="#737373"><use x="239.438" y="217.331" xmlns:xlink="http://www.w3.org/1999/xlink" xlink:href="#g" xlink:type="simple" xlink:actuate="onLoad" xlink:show="embed"/></g><g fill="#737373"><use x="268.633" y="217.331" xmlns:xlink="http://www.w3.org/1999/xlink" xlink:href="#h" xlink:type="simple" xlink:actuate="onLoad" xlink:show="embed"/></g></svg>